<svg xmlns="http://www.w3.org/2000/svg" viewBox="0 0 333333 333333" shape-rendering="geometricPrecision" text-rendering="geometricPrecision" image-rendering="optimizeQuality" fill-rule="evenodd" clip-rule="evenodd"><path d="M156175 126682c70522 68884 121112 137768 147887 206652" fill="none"/><path d="M19434 222964c-9109-13699-14533-34545-15776-55273-1237-20618 1652-41818 9149-56447l7607-14841 12992 10423 123472 99059c5033-18552 6597-37145 5089-54709-2040-23759-12380-49504-24702-66340l23393-13642c15293 20896 25990 49025 28457 77746 2322 27037-1628 56243-12927 84743l-6779 17103-14352-11514-123173-98819c-1275 7859-1614 16716-1079 25641 980 16331 4876 32190 11306 41859l-22676 15010zm235050 93739c30474-47635 48333-108301 48319-155446-19-59215-18592-112748-42196-147742L284316-1c25811 38678 45614 97126 45634 161258 16 51854-20274 119641-53819 172075l-21648-16629zm-56383-44030c21717-31207 34690-73556 34465-112940-224-39202-11488-78684-33719-110467l23538-13649c24878 35976 37078 80183 37329 124010 256 44836-15164 93921-40098 129751l-21515-16705z" fill-rule="nonzero"/></svg>